<svg xmlns="http://www.w3.org/2000/svg" viewBox="0 0 86.5 56.54"><defs><style>.cls-1{fill:#3adc00;stroke-miterlimit:22.93;stroke-width:1.5px;}.cls-1,.cls-4{stroke:#fff;}.cls-1,.cls-2,.cls-3,.cls-4{fill-rule:evenodd;}.cls-2{fill:#18ba00;}.cls-4{fill:none;stroke-linecap:round;stroke-linejoin:round;stroke-width:1px;}</style></defs><title>logo</title><g id="Layer_2" data-name="Layer 2"><g id="Warstwa_1" data-name="Warstwa 1"><path class="cls-1" d="M35.57,14.53c-3.61,2.81-9,3.12-16,1.13C26.26,0,46.5-4.71,59.92,8.29,54.68,6.53,49.83,7.94,45.19,11c-.43-.11-.71-.74-.94-1.3a23,23,0,0,1-8.46,6.11A1.7,1.7,0,0,1,35.57,14.53Z"/><path class="cls-2" d="M45.17,11c4.8-3.26,9.69-4.44,14.7-2.78a25.88,25.88,0,0,1,5.26,8.53c-1.81.75-2.25-.22-3.61-2.78a24.5,24.5,0,0,1-11.73.26,2,2,0,0,1,.79-1.39c-3.59.81-6,0-7.89-1.47a15.28,15.28,0,0,0,1.62-1.73A2.14,2.14,0,0,0,45.17,11Z"/><path class="cls-1" d="M49.12,42c3.61-2.81,9-3.12,16-1.13-6.71,15.68-26.95,20.36-40.37,7.37C30,50,34.85,48.6,39.49,45.55c.43.11.71.74.94,1.3a23,23,0,0,1,8.46-6.11A1.7,1.7,0,0,1,49.12,42Z"/><path class="cls-2" d="M39.51,45.53c-4.8,3.26-9.69,4.44-14.7,2.78a25.89,25.89,0,0,1-5.26-8.53c1.81-.75,2.25.22,3.61,2.78a24.5,24.5,0,0,1,11.73-.26,2,2,0,0,1-.79,1.39c3.59-.81,6,0,7.89,1.47a15.32,15.32,0,0,0-1.62,1.73A2.15,2.15,0,0,0,39.51,45.53Z"/><path class="cls-3" d="M10.85,20a1.83,1.83,0,0,1,1.36.56,1.86,1.86,0,0,1,.55,1.35,1.81,1.81,0,0,1-.55,1.35,1.88,1.88,0,0,1-1.36.53H8.27V36a1.88,1.88,0,0,1-.53,1.36A1.8,1.8,0,0,1,6.38,38,1.8,1.8,0,0,1,5,37.41,1.88,1.88,0,0,1,4.5,36V23.79H1.88a1.84,1.84,0,0,1-1.34-.53A1.81,1.81,0,0,1,0,21.9a1.87,1.87,0,0,1,.55-1.35A1.8,1.8,0,0,1,1.88,20Zm13.78,5.57,0,.06V36.08A1.87,1.87,0,0,1,22.78,38a1.85,1.85,0,0,1-1.36-.55,1.82,1.82,0,0,1-.55-1.34V32.79H17.18v3.29a1.8,1.8,0,0,1-.56,1.34,1.9,1.9,0,0,1-1.38.55,1.77,1.77,0,0,1-1.32-.55,1.84,1.84,0,0,1-.53-1.34V25.56a5.27,5.27,0,0,1,.45-2.17A5.82,5.82,0,0,1,15,21.62a5.59,5.59,0,0,1,1.79-1.2,5.67,5.67,0,0,1,4.36,0A5.58,5.58,0,0,1,23,21.62a5.82,5.82,0,0,1,1.21,1.77,5.27,5.27,0,0,1,.45,2.17Zm-3.77.08A1.87,1.87,0,0,0,19,23.79a1.74,1.74,0,0,0-1.29.55,1.81,1.81,0,0,0-.53,1.31V29h3.68V25.64Zm15.58,6.19a1.9,1.9,0,0,1,1.88,1.91,1.46,1.46,0,0,1-.1.53q-.1.25-.24.53a6.08,6.08,0,0,1-2.31,2.29,6.32,6.32,0,0,1-3.21.86,6,6,0,0,1-2.39-.49,6.67,6.67,0,0,1-2-1.35,6.43,6.43,0,0,1-1.41-2,6.11,6.11,0,0,1-.52-2.52V26.4A6.1,6.1,0,0,1,26.62,24a6.54,6.54,0,0,1,1.36-2,6.65,6.65,0,0,1,2-1.41A6,6,0,0,1,32.48,20,6.4,6.4,0,0,1,38,23.25a2.93,2.93,0,0,1,.21.48,1.62,1.62,0,0,1,.1.53,1.92,1.92,0,0,1-1.91,1.91,1.54,1.54,0,0,1-1-.32,3.45,3.45,0,0,1-.7-.8,2.59,2.59,0,0,0-4-.49,2.7,2.7,0,0,0-.56.83,2.48,2.48,0,0,0-.21,1v5.17a2.48,2.48,0,0,0,.21,1,2.7,2.7,0,0,0,.56.83,2.53,2.53,0,0,0,1.81.75,2.47,2.47,0,0,0,1.29-.34,2.84,2.84,0,0,0,.93-.9,4,4,0,0,1,.65-.79,1.6,1.6,0,0,1,1.1-.31ZM50.14,20a1.83,1.83,0,0,1,1.36.56,1.86,1.86,0,0,1,.55,1.35,1.81,1.81,0,0,1-.55,1.35,1.88,1.88,0,0,1-1.36.53H47.55V36A1.88,1.88,0,0,1,47,37.41a1.94,1.94,0,0,1-2.7,0A1.88,1.88,0,0,1,43.79,36V23.79H41.17a1.84,1.84,0,0,1-1.34-.53,1.81,1.81,0,0,1-.55-1.35,1.87,1.87,0,0,1,.55-1.35A1.8,1.8,0,0,1,41.17,20Zm9.39,18a6.11,6.11,0,0,1-4.41-1.86,7,7,0,0,1-1.36-2,6.82,6.82,0,0,1-.58-2.52V21.9a1.86,1.86,0,0,1,.55-1.35A1.83,1.83,0,0,1,55.09,20a1.75,1.75,0,0,1,1.32.56,1.89,1.89,0,0,1,.53,1.35v9.65a2.45,2.45,0,0,0,.21,1,3,3,0,0,0,.56.83,2.44,2.44,0,0,0,.82.56,2.53,2.53,0,0,0,1,.2,2.63,2.63,0,0,0,1-.2,2.41,2.41,0,0,0,.83-.56,2.94,2.94,0,0,0,.56-.83,2.45,2.45,0,0,0,.21-1V21.9a1.86,1.86,0,0,1,.55-1.35A1.83,1.83,0,0,1,64.06,20a1.79,1.79,0,0,1,1.34.56,1.87,1.87,0,0,1,.55,1.35v9.65A6.54,6.54,0,0,1,65.42,34a6.66,6.66,0,0,1-1.35,2,6.43,6.43,0,0,1-2,1.41,6.11,6.11,0,0,1-2.52.52ZM80.82,20a5.27,5.27,0,0,1,2.17.45,5.59,5.59,0,0,1,1.77,1.24A6.37,6.37,0,0,1,86,23.49a6,6,0,0,1,.52,2.21V36A1.9,1.9,0,0,1,84.62,38,1.87,1.87,0,0,1,82.71,36V25.93a1.85,1.85,0,0,0-.55-1.36A1.82,1.82,0,0,0,80.82,24a1.86,1.86,0,0,0-1.35.55,1.83,1.83,0,0,0-.56,1.36V36a1.85,1.85,0,0,1-.55,1.36,1.9,1.9,0,0,1-2.67,0A1.85,1.85,0,0,1,75.14,36V25.93A1.87,1.87,0,0,0,73.23,24a1.82,1.82,0,0,0-1.34.55,1.85,1.85,0,0,0-.55,1.36V36A1.87,1.87,0,0,1,69.43,38a1.82,1.82,0,0,1-1.34-.55A1.85,1.85,0,0,1,67.55,36V25.7A5.48,5.48,0,0,1,68,23.56a5.75,5.75,0,0,1,1.21-1.83A6.07,6.07,0,0,1,71,20.47,5.26,5.26,0,0,1,73.23,20a5.16,5.16,0,0,1,2,.39A7.45,7.45,0,0,1,77,21.45a7.81,7.81,0,0,1,1.76-1.05A5.08,5.08,0,0,1,80.82,20Z"/><path class="cls-4" d="M25.91,12.26C34.31,5,41.67,3.07,54,2.82"/><path class="cls-4" d="M58.77,44.28c-8.4,7.27-15.76,9.19-28.11,9.45"/></g></g></svg>