<svg xmlns="http://www.w3.org/2000/svg" viewBox="0 0 45.87 39.6"><defs><style>.cls-1{fill:none;stroke:#18ba00;stroke-linecap:round;stroke-linejoin:round;stroke-width:2px;}</style></defs><title>brain_1</title><g id="Layer_2" data-name="Layer 2"><g id="Layer_1-2" data-name="Layer 1"><g id="Layer_2-2" data-name="Layer 2"><g id="Warstwa_2" data-name="Warstwa 2"><path class="cls-1" d="M44.87,21.6a5.4,5.4,0,0,0-3.31-4.9A4.17,4.17,0,0,0,40.45,10a4.11,4.11,0,0,0-1.9-.41h-.31a4.84,4.84,0,0,0,.41-1.88,4.18,4.18,0,0,0-4.17-4.18,3.88,3.88,0,0,0-2,.49A4.41,4.41,0,0,0,28.6,1a4.41,4.41,0,0,0-4.17,3.76V33.6h.07a5,5,0,0,0,5,5h.31A5.35,5.35,0,0,0,35,34.26a5.35,5.35,0,0,0,7-5.06,5.9,5.9,0,0,0-.65-2.62A5.26,5.26,0,0,0,44.87,21.6Z"/><path class="cls-1" d="M1,21.61a5.39,5.39,0,0,1,3.31-4.9A4.17,4.17,0,0,1,5.4,10,4.11,4.11,0,0,1,7.3,9.6h.32a4.84,4.84,0,0,1-.41-1.88,4.18,4.18,0,0,1,4.17-4.17,3.88,3.88,0,0,1,2,.49,4.41,4.41,0,0,1,3.92-3,4.41,4.41,0,0,1,4.17,3.76V33.6h-.07a5,5,0,0,1-5,5H16a5.35,5.35,0,0,1-5.23-4.34A5.35,5.35,0,0,1,3.87,29.2a5.9,5.9,0,0,1,.65-2.61A5.26,5.26,0,0,1,1,21.61Z"/><path class="cls-1" d="M9,22.78a5.25,5.25,0,0,1,5.45,3.13c1.82,4.13-.58,7.18-4.13,8.34"/><path class="cls-1" d="M17.31,10.68a5.67,5.67,0,0,1-5.79,2.48A5.74,5.74,0,0,1,7.06,9.27"/><path class="cls-1" d="M17.31,18.15a7.91,7.91,0,0,0-5.36-4.8"/><path class="cls-1" d="M32,18.65a6.69,6.69,0,0,0,2.15,6.45c1.48,1.33,4.46,1.74,7,1.41"/><path class="cls-1" d="M30.86,11.87s2.23,1.41,4.13.83,3.22-3.35,3.22-3.35"/><path class="cls-1" d="M29.21,30a6,6,0,0,1,6-4.22"/></g></g></g></g></svg>