<svg xmlns="http://www.w3.org/2000/svg" viewBox="0 0 28 39.29"><defs><style>.cls-1{fill:#2db34a;}.cls-2{fill:none;stroke:#2db34a;stroke-linecap:round;stroke-linejoin:round;stroke-width:2px;}</style></defs><title>cwiczenia</title><g id="Layer_2" data-name="Layer 2"><g id="ICON_PACK_VOL._1" data-name="ICON PACK VOL. 1"><path class="cls-1" d="M12,2A3,3,0,1,1,9,5a3,3,0,0,1,3-3m0-2a5,5,0,1,0,5,5,5,5,0,0,0-5-5Z"/><path class="cls-2" d="M17.28,12h-9A2.71,2.71,0,0,0,6,13.52C5.23,15,2.19,21.9,1.42,23.43S.66,28,3.71,28H12L8.23,35s-.75,2.26.75,3a2.75,2.75,0,0,0,3.76-1.5s3.76-8.28,4.51-9.78C19,23,15.76,23,15.76,23h-5.2L14,16H25a2,2,0,0,0,0-4Z"/></g></g></svg>