<svg xmlns="http://www.w3.org/2000/svg" viewBox="0 0 30.98 42.49"><defs><style>.cls-1{fill:none;stroke:#18ba00;stroke-linecap:round;stroke-linejoin:round;stroke-width:2px;}</style></defs><title>palm_2</title><g id="Layer_2" data-name="Layer 2"><g id="Layer_1-2" data-name="Layer 1"><path class="cls-1" d="M15,18.49V3.79a2.51,2.51,0,1,1,5,0v12.7"/><path class="cls-1" d="M20,17.49V5.41a2.51,2.51,0,1,1,5,0V18.49"/><path class="cls-1" d="M25,19.49V10c0-4,5-4,5,0V35.75s-.93,5.74-6,5.74h-6.7c-2.9,0-5.44-2.41-6.75-4.13-2.89-3.8-7.26-9-8.87-11.19-2.09-2.9,1.14-7,4.19-3.55C9.18,26.42,10,27.48,10,27.48V6.23c0-4,5-4,5,0V19.49"/></g></g></svg>