<svg xmlns="http://www.w3.org/2000/svg" viewBox="0 0 30.32 38"><defs><style>.cls-1{fill:#18ba00;}</style></defs><title>person</title><g id="Layer_2" data-name="Layer 2"><g id="Layer_1-2" data-name="Layer 1"><path class="cls-1" d="M15,2a8.42,8.42,0,1,1-8.42,8.42A8.43,8.43,0,0,1,15,2m0-2A10.42,10.42,0,1,0,25.43,10.42,10.42,10.42,0,0,0,15,0Z"/><path class="cls-1" d="M22.31,22.42l2.3,1.09.06,0,.06,0c3.15,1.26,3.56,5.22,3.59,6.8A18.37,18.37,0,0,1,15.58,36h-.83A18.37,18.37,0,0,1,2,30.36c0-1.59.44-5.54,3.59-6.8l.06,0,.06,0L8,22.42a13.91,13.91,0,0,0,14.31,0m-.16-2.29a11.91,11.91,0,0,1-14,0L4.85,21.7C-.55,23.87,0,31.17,0,31.17A20.47,20.47,0,0,0,14.74,38h.83A20.47,20.47,0,0,0,30.3,31.17s.57-7.3-4.83-9.47l-3.32-1.57Z"/></g></g></svg>