<svg xmlns="http://www.w3.org/2000/svg" viewBox="0 0 40 32.4"><defs><style>.cls-1{fill:none;stroke:#2db34a;stroke-linecap:round;stroke-linejoin:round;stroke-width:2px;}</style></defs><title>wywiad</title><g id="Layer_2" data-name="Layer 2"><g id="ICON_PACK_VOL._1" data-name="ICON PACK VOL. 1"><path class="cls-1" d="M22.17,29.47a22.74,22.74,0,0,1-3.13.21,32.64,32.64,0,0,1-6.49-.79c-1.11-.27-2.56,3.05-5.63,2.43,0,0,2.76-3.59.76-4.84C3.56,23.92,1,19.84,1,15.34,1,7.42,9.08,1,19,1s18,6.42,18,14.34"/><path class="cls-1" d="M14.92,20.68c0,5.29,5.39,9.57,12,9.57a21.78,21.78,0,0,0,4.33-.53c.74-.18,1.71,2,3.76,1.62,0,0-1.84-2.4-.51-3.23A8.85,8.85,0,0,0,39,20.68c0-5.29-5.39-9.57-12-9.57S14.92,15.4,14.92,20.68Z"/></g></g></svg>